<?xml version="1.0" encoding="UTF-8" standalone="no"?>
<svg
   xmlns:dc="http://purl.org/dc/elements/1.1/"
   xmlns:cc="http://creativecommons.org/ns#"
   xmlns:rdf="http://www.w3.org/1999/02/22-rdf-syntax-ns#"
   xmlns:svg="http://www.w3.org/2000/svg"
   xmlns="http://www.w3.org/2000/svg"
   version="1.1"
   id="svg2"
   height="640"
   width="640">
  <metadata
     id="metadata20">
    <rdf:RDF>
      <cc:Work
         rdf:about="">
        <dc:format>image/svg+xml</dc:format>
        <dc:type
           rdf:resource="http://purl.org/dc/dcmitype/StillImage" />
        <dc:title></dc:title>
      </cc:Work>
    </rdf:RDF>
  </metadata>
  <defs
     id="defs18" />
  <g
     id="g4">
    <path
       id="path3341"
       d="m 146.875,270.16813 -3.75,-0.96053 4.375,-1.93129 c 4.7449,-2.09456 9.63071,-6.81227 8.3654,-8.07757 -0.43226,-0.43228 -6.28819,-1.27707 -13.01318,-1.87733 -14.49606,-1.29388 -24.35044,-3.14699 -30.35222,-5.70767 l -4.375,-1.8666 5.777,-1.7396 c 5.71155,-1.71988 9.65495,-4.72448 7.7212,-5.883 -0.54901,-0.32892 -5.40247,-1.82724 -10.78548,-3.3296 C 98.625279,235.38652 83.923966,229.45967 81.385571,226.92129 79.657191,225.1929 79.98503,225 84.650769,225 90.43896,225 96.25,223.18538 96.25,221.37788 c 0,-0.65121 -1.828125,-1.78741 -4.0625,-2.52489 C 84.580255,216.3421 56.442004,198.62654 56.286374,196.25 c -0.02251,-0.34375 3.194471,-0.46815 7.148849,-0.27645 7.822352,0.37921 12.454583,-1.35729 9.064777,-3.39815 -9.893606,-5.95651 -31.25,-22.95835 -31.25,-24.87814 0,-0.46215 2.544379,-0.63791 5.654175,-0.39059 3.109796,0.24734 7.03154,0.104 8.714985,-0.31851 2.853252,-0.71612 2.088401,-1.73432 -11.279175,-15.0154 -13.514459,-13.427 -17.294699,-18.4998 -12.152485,-16.30772 1.203125,0.51289 5.41381,1.20258 9.357076,1.53267 5.848495,0.48959 7.314174,0.22336 7.954314,-1.44482 0.522461,-1.3615 -0.411547,-2.96652 -2.794576,-4.80223 C 35.578547,122.3802 25,110.48073 25,106.53617 c 0,-0.59838 2.953125,-0.66738 6.5625,-0.15332 C 40.87165,107.70868 42.5,107.67596 42.5,106.1631 42.5,102.99758 34.30866,85.535785 30.456092,80.488649 28.142741,77.457994 26.25,74.806411 26.25,74.596244 c 0,-0.210169 6.328125,-0.164559 14.0625,0.10135 7.734375,0.265912 17.15625,-0.01868 20.9375,-0.632405 l 6.875,-1.115884 -5.304014,-5.024808 C 59.903779,65.160858 57.888154,62.528512 58.34182,62.074847 60.209402,60.207265 82.34701,61.31315 91.875,63.75 104.28792,66.92469 105,66.895718 105,63.216005 c 0,-1.96486 -1.65181,-4.436888 -4.6875,-7.015128 l -4.6875,-3.981131 7.70151,0.73436 c 4.23583,0.403899 13.01275,2.435706 19.50428,4.515128 6.49152,2.079421 12.16647,3.780766 12.611,3.780766 0.44451,0 0.80821,-1.221422 0.80821,-2.714271 0,-1.596625 -2.38449,-4.99901 -5.79086,-8.262895 l -5.79087,-5.548624 5.47837,0.90868 c 7.7282,1.281853 23.34252,7.132 29.63087,11.101658 2.92352,1.845536 5.85706,3.020807 6.51899,2.611715 2.31985,-1.433747 1.19975,-7.908899 -2.03261,-11.750357 C 162.02761,44.938255 161.57972,43.75 162.81423,43.75 c 3.40867,0 16.60202,7.42309 24.46995,13.767737 6.36745,5.134683 8.25581,6.090224 9.6875,4.902033 2.16345,-1.795504 2.35326,-10.094839 0.27832,-12.16977 -1.16666,-1.166666 -1.14727,-1.5 0.0873,-1.5 2.82199,0 12.0497,7.128724 19.13744,14.784324 3.81788,4.123773 7.51627,7.089278 8.26455,6.626822 2.29256,-1.416881 3.98761,-7.46426 3.19835,-11.41061 C 227.51317,56.628366 227.71829,55 228.41004,55 c 1.4956,0 22.82143,21.901953 25.89848,26.598113 2.76839,4.2251 3.69284,3.665316 5.68247,-3.440912 C 260.86214,75.04574 262.00786,72.5 262.53702,72.5 c 1.58582,0 13.52007,13.603104 18.95265,21.60293 6.92007,10.19025 15.27733,28.20893 18.67862,40.27207 7.37568,26.15884 0.88505,45.47169 -19.79574,58.90219 -3.57635,2.32255 -7.07761,4.22281 -7.78058,4.22281 -0.70296,0 -5.93311,-3.76316 -11.62255,-8.36259 C 229.64994,163.81829 183.26095,138.14619 128.75,115.96598 97.814824,103.37862 95.696802,102.89805 115,112.84618 c 41.81699,21.55087 84.3271,48.53632 112.5,71.41508 10.94164,8.88554 28.46651,25.37339 29.98495,28.21061 1.62004,3.02707 -2.83021,14.06777 -9.35723,23.21457 -11.3804,15.9482 -28.14405,25.01716 -58.75272,31.78463 -12.21128,2.69988 -36.47704,4.23978 -42.5,2.69705 z"
       style="fill:#68a400" />
    <path
       id="path8"
       d="m 464.42283,269.26709 c -14.95025,-2.32322 -31.80188,-7.24127 -42.75618,-12.47817 -15.49653,-7.40837 -30.29036,-23.56918 -34.13025,-37.28392 -1.5704,-5.60893 -1.53139,-5.77185 2.49346,-10.41404 12.62139,-14.55725 44.52037,-39.75079 74.67778,-58.97987 18.84251,-12.01443 43.6276,-25.70762 45.4002,-26.62164 1.0627,-0.54797 2.36025,-1.38348 3.98487,-2.40598 1.43686,-0.90433 9.29599,-5.30974 17.8279,-9.30423 8.53193,-3.99449 15.28848,-7.48681 15.01458,-7.76072 -0.59299,-0.59299 -9.39074,3.02717 -10.68519,3.60547 -1.94919,0.87081 -6.01892,2.75936 -12.5,5.20017 -52.48728,19.76699 -107.31805,49.53731 -142.29658,77.67609 l -9.26638,7.45442 -5.78103,-3.02445 c -7.76772,-4.06383 -17.68893,-14.15196 -21.44444,-21.80522 -2.66151,-5.42388 -3.0682,-7.98488 -3.07673,-19.375 -0.009,-11.1717 0.5246,-14.70625 3.58127,-23.75 4.62465,-13.68289 12.77746,-29.87764 19.82231,-39.375 6.21912,-8.384163 15.38244,-18.125 17.05043,-18.125 0.6004,0 1.44626,2.217721 1.87969,4.928269 1.14911,7.18613 3.00645,7.460916 8.04927,1.190861 C 397.90931,71.604699 414.4918,55 415.85534,55 c 0.57072,0 0.83389,2.56227 0.58482,5.693935 -0.32995,4.148496 0.14228,6.351551 1.73983,8.116825 2.14187,2.36674 2.38391,2.223984 10.44385,-6.159932 8.22326,-8.553802 15.42253,-13.887283 18.7574,-13.896155 1.35071,-0.0036 1.24427,0.561038 -0.461,2.445335 -1.66023,1.834528 -2.01075,3.550618 -1.39532,6.831151 0.45206,2.409629 1.34994,4.707481 1.99531,5.106339 0.64536,0.398857 4.90986,-2.138657 9.47666,-5.63892 C 465.75416,50.786492 478.53476,43.75 481.96885,43.75 c 1.53994,0 1.08897,1.083309 -1.83936,4.418495 -3.91218,4.455722 -4.70099,7.351144 -2.81339,10.326751 0.78951,1.244585 3.17609,0.465409 10.29336,-3.360616 8.3919,-4.511224 25.07724,-10.162895 29.86541,-10.116034 1.15905,0.01138 0.11338,1.595788 -2.68124,4.0625 -5.21739,4.605303 -8.03866,9.42388 -6.44862,11.01392 0.60217,0.602158 6.25275,-0.587934 12.82199,-2.700485 6.45996,-2.077406 15.44946,-4.08721 19.97669,-4.466231 l 8.23131,-0.689127 -4.52999,3.193442 c -4.46551,3.147995 -6.09501,5.566072 -6.09501,9.044619 0,2.377877 2.78503,2.236982 14.375,-0.727234 9.5788,-2.449843 30.45037,-3.507963 32.31983,-1.638508 0.47382,0.473822 -1.46531,3.232322 -4.30916,6.129999 l -5.17065,5.268505 9.56017,0.89586 c 5.25808,0.492724 14.60346,0.654739 20.76748,0.360033 C 612.4567,74.471182 617.5,74.416856 617.5,74.645164 c 0,0.228307 -1.90235,3.180636 -4.22745,6.560731 -4.42344,6.430554 -12.64692,24.836395 -11.57535,25.907975 0.34143,0.34142 4.59922,0.10739 9.46179,-0.52006 4.86255,-0.62745 8.83891,-0.82086 8.83633,-0.42981 -0.0215,3.26242 -8.96321,13.51426 -20.58023,23.59546 -4.96399,4.30773 -5.83835,5.6162 -4.37243,6.54336 2.36775,1.49753 9.4932,1.51428 14.65309,0.0345 2.80345,-0.80403 4.05425,-0.74249 4.05425,0.19946 0,0.74921 -6.38844,7.75064 -14.19651,15.55872 -12.9444,12.9444 -13.93921,14.26109 -11.27918,14.92873 1.60454,0.40271 5.46171,0.52983 8.57151,0.2825 3.1098,-0.24733 5.65418,-0.0802 5.65418,0.37139 0,1.63823 -14.42458,13.95095 -23.58694,20.13364 -8.91522,6.01594 -9.23279,6.39048 -6.33681,7.474 1.67681,0.62737 5.72097,0.96037 8.98702,0.73998 3.26605,-0.22037 5.93793,0.005 5.9375,0.50082 -10e-4,1.85898 -19.75926,14.74757 -29.63821,19.334 -5.64434,2.62048 -10.28496,5.09608 -10.3125,5.50134 -0.10325,1.51925 6.497,3.63815 11.33253,3.63815 3.32737,0 4.72913,0.46246 4.16558,1.3743 -1.49002,2.41091 -15.19095,8.23178 -28.06625,11.92399 -6.85987,1.9672 -12.47462,4.21575 -12.47721,4.99679 -0.005,1.59501 7.42219,5.45492 10.4967,5.45492 1.09923,0 1.99859,0.48838 1.99859,1.08528 0,2.40645 -25.0524,7.62035 -36.875,7.67442 -11.15733,0.051 -12.42081,3.96779 -2.8734,8.90747 5.20236,2.69161 5.27392,2.80881 2.2484,3.68187 -5.02401,1.44975 -20.97598,1.04852 -33.07718,-0.83195 z"
       style="fill:#68a400" />
    <path
       style="fill:#c00b42"
       d="M 323.2793 257.51562 C 300.2632 257.51423 274.08516 260.89805 251.25 267.08398 C 191.0438 283.39354 123.47483 321.78907 56.830078 377.56055 C 36.579407 394.50728 1.8571145 426.61715 0.79882812 429.375 C 0.40290897 430.40675 0.38924733 432.06174 0.76953125 433.05273 C 1.1498151 434.04373 9.6310235 442.51068 19.617188 451.86914 C 108.62655 535.28373 199.62816 587.92533 277.61719 601.11328 C 286.14607 602.55551 295.09375 603.96807 297.5 604.25195 C 309.25484 605.63872 348.64959 603.85941 362.5 601.31641 C 430.85169 588.76667 508.41378 547.87334 583.43555 484.83203 C 600.63934 470.37558 637.27841 436.49902 638.81445 433.62891 C 639.46129 432.42029 639.65135 430.54639 639.23633 429.46484 C 638.14862 426.63032 603.7152 394.7542 583.16992 377.5625 C 499.59695 307.63099 418.44824 267.12156 345 258.66797 C 338.2713 257.89353 330.95133 257.51609 323.2793 257.51562 z M 323.35352 308.03125 C 332.90595 308.12071 341.92103 308.90852 347.5 310.42969 C 372.59345 317.27168 389.45844 326.81346 406.28711 343.6875 C 429.66377 367.1272 441.65234 396.17453 441.65234 429.375 C 441.65234 462.57547 429.66377 491.6228 406.28711 515.0625 C 389.6217 531.77285 373.65 540.93482 349.375 547.70508 C 343.2873 549.40293 335.49058 550.2805 323.75 550.5918 C 305.18585 551.08402 303.85259 550.95665 289.375 547.31836 C 244.38009 536.01091 208.95461 497.84889 199.82812 450.85156 C 197.65714 439.67195 198.02361 416.22752 200.55273 404.49023 C 210.33048 359.11299 244.62642 323.29918 290 311.08398 C 297.90149 308.95679 311.07182 307.91624 323.35352 308.03125 z "
       id="path10" />
    <path
       id="path14"
       d="m 303.88079,488.02185 c -28.91623,-7.77601 -48.06839,-37.02579 -43.86358,-66.98985 3.45141,-24.59536 21.54944,-44.80629 45.09108,-50.3554 35.75756,-8.42856 69.42686,14.05707 74.9154,50.03135 4.56712,29.93495 -15.08593,59.72952 -44.44239,67.37591 -9.09075,2.36784 -22.76423,2.34109 -31.70051,-0.062 z"
       style="fill:#000000" />
  </g>
</svg>
